<?xml version="1.0" encoding="UTF-8" standalone="no"?>
<svg xmlns:rdf="http://www.w3.org/1999/02/22-rdf-syntax-ns#" xmlns="http://www.w3.org/2000/svg" aria-describedby="desc" aria-labelledby="title" viewBox="0 0 488.51077 319.50103" height="319.5" width="488.51" version="1.1" role="img" xmlns:cc="http://creativecommons.org/ns#" xmlns:dc="http://purl.org/dc/elements/1.1/">
<title>Categorical Statements</title>
<desc>A dynamic visual (using a Venn diagram) introduction to the four kinds of categorical statements of Aristotelian (traditional syllogistic) logic.</desc>
<metadata>
<rdf:RDF>
<cc:Work rdf:about="">
<dc:format>image/svg+xml</dc:format>
<dc:type rdf:resource="http://purl.org/dc/dcmitype/StillImage"/>
<dc:title>Categorical Statements</dc:title>
<dc:date>5 October 2016</dc:date>
<dc:creator>
<cc:Agent>
<dc:title>Philosophy Ink</dc:title>
</cc:Agent>
</dc:creator>
<dc:rights>
<cc:Agent>
<dc:title>Creative Commons Attribution-ShareAlike</dc:title>
</cc:Agent>
</dc:rights>
<dc:publisher>
<cc:Agent>
<dc:title>https://github.com/philosophyInk/philosophy-visualized</dc:title>
</cc:Agent>
</dc:publisher>
<dc:source>Aristotle</dc:source>
<dc:subject>
<rdf:Bag>
<rdf:li>categorical statement</rdf:li>
<rdf:li>Venn diagram</rdf:li>
<rdf:li>logic</rdf:li>
</rdf:Bag>
</dc:subject>
<dc:description>A dynamic visual (using a Venn diagram) introduction to the four kinds of categorical statements of Aristotelian (traditional syllogistic) logic.</dc:description>
<cc:license rdf:resource="http://creativecommons.org/licenses/by-sa/3.0/"/>
</cc:Work>
<cc:License rdf:about="http://creativecommons.org/licenses/by-sa/3.0/">
<cc:permits rdf:resource="http://creativecommons.org/ns#Reproduction"/>
<cc:permits rdf:resource="http://creativecommons.org/ns#Distribution"/>
<cc:requires rdf:resource="http://creativecommons.org/ns#Notice"/>
<cc:requires rdf:resource="http://creativecommons.org/ns#Attribution"/>
<cc:permits rdf:resource="http://creativecommons.org/ns#DerivativeWorks"/>
<cc:requires rdf:resource="http://creativecommons.org/ns#ShareAlike"/>
</cc:License>
</rdf:RDF>
</metadata>

<defs>
<clipPath id="n" clipPathUnits="userSpaceOnUse">
<circle stroke-linejoin="round" stroke-width="5" fill-opacity="0" stroke-linecap="round" stroke="#f30000" cy="178.25" cx="206.37" r="48.5"/>
</clipPath>
<clipPath id="l" clipPathUnits="userSpaceOnUse">
<circle stroke-linejoin="round" stroke-width="5" fill-opacity="0" stroke-linecap="round" stroke="#f30000" cy="178.25" cx="206.37" r="48.5"/>
</clipPath>
<clipPath id="k" clipPathUnits="userSpaceOnUse">
<circle stroke-linejoin="round" stroke-width="5" fill-opacity="0" stroke-linecap="round" stroke="#f30000" cy="178.25" cx="206.37" r="48.5"/>
</clipPath>
<clipPath id="i" clipPathUnits="userSpaceOnUse">
<circle stroke-linejoin="round" stroke-width="5" fill-opacity="0" stroke-linecap="round" stroke="#f30000" cy="178.25" cx="206.37" r="48.5"/>
</clipPath>
<clipPath id="g" clipPathUnits="userSpaceOnUse">
<circle stroke-linejoin="round" stroke-width="5" fill-opacity="0" stroke-linecap="round" stroke="#f30000" cy="178.25" cx="206.37" r="48.5"/>
</clipPath>
<clipPath id="e" clipPathUnits="userSpaceOnUse">
<circle stroke-linejoin="round" stroke-width="5" fill-opacity="0" stroke-linecap="round" stroke="#f30000" cy="178.25" cx="206.37" r="48.5"/>
</clipPath>
<clipPath id="c" clipPathUnits="userSpaceOnUse">
<circle stroke-linejoin="round" stroke-width="5" fill-opacity="0" stroke-linecap="round" stroke="#f30000" cy="178.25" cx="206.37" r="48.5"/>
</clipPath>
<clipPath id="m" clipPathUnits="userSpaceOnUse">
<circle stroke-linejoin="round" stroke-width="5" fill-opacity="0" stroke-linecap="round" stroke="#f30000" cy="178.25" cx="206.37" r="48.5"/>
</clipPath>
<clipPath id="j" clipPathUnits="userSpaceOnUse">
<circle stroke-linejoin="round" stroke-width="5" fill-opacity="0" stroke-linecap="round" stroke="#f30000" cy="178.25" cx="206.37" r="48.5"/>
</clipPath>
<clipPath id="h" clipPathUnits="userSpaceOnUse">
<circle stroke-linejoin="round" stroke-width="5" fill-opacity="0" stroke-linecap="round" stroke="#f30000" cy="178.25" cx="206.37" r="48.5"/>
</clipPath>
<clipPath id="f" clipPathUnits="userSpaceOnUse">
<circle stroke-linejoin="round" stroke-width="5" fill-opacity="0" stroke-linecap="round" stroke="#f30000" cy="178.25" cx="206.37" r="48.5"/>
</clipPath>
<clipPath id="d" clipPathUnits="userSpaceOnUse">
<circle stroke-linejoin="round" stroke-width="5" fill-opacity="0" stroke-linecap="round" stroke="#f30000" cy="178.25" cx="206.37" r="48.5"/>
</clipPath>
<clipPath id="b" clipPathUnits="userSpaceOnUse">
<circle stroke-linejoin="round" stroke-width="5" fill-opacity="0" stroke-linecap="round" stroke="#f30000" cy="178.25" cx="206.37" r="48.5"/>
</clipPath>
<clipPath id="a" clipPathUnits="userSpaceOnUse">
<path d="m277.56 85.284c-0.39889-0.66481-0.0787-0.0472-0.33056-0.55092-0.0367-0.0734-0.0842-0.14245-0.11018-0.22036-0.0116-0.0348 0-0.0735 0-0.11019-0.0367-0.0367-0.087-0.0637-0.11018-0.11018-0.0164-0.0329 0.0164-0.0773 0-0.11019-0.0351-0.0702-0.46434-0.46434-0.55092-0.55091-0.0367-0.0367-0.087-0.0637-0.11018-0.11019-0.0164-0.0328 0-0.0734 0-0.11018-0.0367-0.0735-0.0646-0.15204-0.11019-0.22037-0.0669-0.1003-0.28172-0.23289-0.33055-0.33055-0.0164-0.0328 0.0164-0.0773 0-0.11018-0.0465-0.0929-0.17391-0.12746-0.22037-0.22037-0.0164-0.0328 0.0164-0.0773 0-0.11019-0.0232-0.0465-0.0734-0.0735-0.11018-0.11018-0.0367-0.0367-0.0637-0.087-0.11018-0.11018-0.0328-0.0164-0.0842 0.026-0.11019 0-0.026-0.026 0.0164-0.0773 0-0.11019-0.0661-0.13222-0.26444-0.19833-0.33055-0.33055-0.076-0.15198 0.13344-0.0986-0.11018-0.22036-0.15199-0.076-0.0986 0.13343-0.22037-0.11019-0.0164-0.0328 0.0164-0.0773 0-0.11018-0.0232-0.0465-0.0735-0.0735-0.11018-0.11019-0.0866-0.0866-0.51583-0.48073-0.55092-0.55091-0.0164-0.0328 0.0164-0.0773 0-0.11019-0.0146-0.0293-0.3013-0.31592-0.33055-0.33055-0.0328-0.0164-0.0773 0.0164-0.11019 0-0.0211-0.0105-0.43019-0.41964-0.44073-0.44073-0.0164-0.0328 0.026-0.0842 0-0.11019-0.0581-0.0581-0.15204-0.0646-0.22037-0.11018-0.12713-0.0848-0.20342-0.2458-0.33055-0.33055-0.0683-0.0456-0.15204-0.0646-0.22037-0.11019-0.16821-0.11214-0.16234-0.32859-0.33055-0.44073-0.0683-0.0456-0.15203-0.0646-0.22037-0.11019-0.0678-0.0452-0.15251-0.17513-0.22036-0.22036-0.0683-0.0456-0.15204-0.0646-0.22037-0.11019-0.16213-0.10808-0.2786-0.33264-0.44074-0.44073-0.0306-0.0204-0.0773 0.0164-0.11018 0-0.0465-0.0232-0.0735-0.0735-0.11018-0.11018l-0.33056-0.33056c-0.0367-0.0367-0.067-0.0814-0.11018-0.11018-0.0683-0.0456-0.15203-0.0646-0.22037-0.11018-0.25213-0.16809 0.0689-0.0872-0.33055-0.22037-0.0348-0.0116-0.0753 0.0116-0.11018 0-0.39945-0.13315-0.0784-0.0523-0.33055-0.22037-0.55663-0.37108-0.003-0.00085-0.33055-0.11018-0.15583-0.0519-0.29383-0.14691-0.44074-0.22037-0.14691-0.0735-0.30407-0.12926-0.44073-0.22037-0.0432-0.0288-0.0637-0.087-0.11019-0.11018-0.0329-0.0164-0.0773 0.0164-0.11018 0-0.0929-0.0465-0.12745-0.17391-0.22037-0.22037-0.0328-0.0164-0.0773 0.0164-0.11018 0-0.0929-0.0465-0.12745-0.17391-0.22037-0.22037-0.0328-0.0164-0.0842 0.026-0.11018 0-0.026-0.026 0.026-0.0842 0-0.11018-0.026-0.026-0.0773 0.0164-0.11019 0-0.0464-0.0232-0.067-0.0814-0.11018-0.11018-0.0683-0.0456-0.15467-0.0609-0.22037-0.11019-0.0831-0.0623-0.13393-0.16274-0.22037-0.22036-0.27333-0.18223-0.60813-0.25852-0.88146-0.44074-0.0864-0.0576-0.13727-0.15804-0.22037-0.22037-0.1314-0.0985-0.30407-0.12925-0.44074-0.22036-0.12713-0.0848-0.20341-0.2458-0.33055-0.33055-0.0683-0.0456-0.16229-0.0521-0.22037-0.11019-0.0581-0.0581-0.0521-0.16229-0.11018-0.22037-0.0581-0.0581-0.15203-0.0646-0.22037-0.11018-0.0864-0.0576-0.13393-0.16274-0.22036-0.22037-0.0683-0.0455-0.15204-0.0646-0.22037-0.11018-0.1003-0.0669-0.23289-0.28172-0.33055-0.33055-0.0328-0.0164-0.0753 0.0116-0.11019 0-0.20012-0.0667-0.20448-0.0943-0.33055-0.22037-0.0367-0.0367-0.0637-0.0869-0.11018-0.11018-0.0328-0.0164-0.0773 0.0164-0.11018 0-0.13223-0.0661-0.19834-0.26444-0.33056-0.33055-0.0328-0.0164-0.0773 0.0164-0.11018 0-0.0465-0.0232-0.0637-0.087-0.11018-0.11019-0.0329-0.0164-0.0773 0.0164-0.11019 0-0.0464-0.0232-0.0637-0.087-0.11018-0.11018-0.0328-0.0164-0.0773 0.0164-0.11018 0-0.0465-0.0232-0.0637-0.087-0.11019-0.11019-0.0328-0.0164-0.0735 0-0.11018 0-0.0735-0.0367-0.15204-0.0646-0.22037-0.11018-0.0432-0.0288-0.0637-0.087-0.11018-0.11018-0.0657-0.0328-0.15467 0.0328-0.22037 0-0.50427-0.25214 0.46755 0.0457-0.33055-0.22037-0.0348-0.0116-0.0773 0.0164-0.11019 0-0.0977-0.0488-0.23024-0.26368-0.33055-0.33055-0.0555-0.24275-0.22667-0.0582-0.33055-0.11018-0.0465-0.0232-0.0609-0.0938-0.11018-0.11019-0.0697-0.0232-0.15068 0.0232-0.22037 0-0.0493-0.0164-0.0609-0.0938-0.11018-0.11018-0.0697-0.0232-0.14911 0.0178-0.22037 0-0.0797-0.0199-0.14246-0.0842-0.22037-0.11019-0.0348-0.0116-0.0753 0.0116-0.11018 0-0.0779-0.026-0.14069-0.0903-0.22037-0.11018-0.0713-0.0178-0.15068 0.0232-0.22037 0-0.0493-0.0164-0.0609-0.0938-0.11018-0.11018-0.0697-0.0232-0.1491 0.0178-0.22037 0-0.0797-0.0199-0.14245-0.0842-0.22036-0.11019-0.0349-0.0116-0.0754 0.0116-0.11019 0-0.19942 0.0664-0.20492-0.17849-0.33055-0.22036-0.0697-0.0232-0.15467 0.0328-0.22037 0-0.0929-0.0465-0.13726-0.15804-0.22036-0.22037-0.0657-0.0493-0.14692-0.0735-0.22037-0.11019-0.0735-0.0367-0.14412-0.0797-0.22037-0.11018-0.10784-0.0431-0.22667-0.0582-0.33055-0.11018-0.50427-0.25214 0.46756 0.0457-0.33055-0.22037-0.0348-0.0116-0.0773 0.0164-0.11019 0-0.33601-0.16801 0.20152-0.0873-0.33055-0.22037-0.0713-0.0178-0.14691 0-0.22036 0-0.0367 0-0.0773 0.0164-0.11019 0-0.0464-0.0232-0.0609-0.0938-0.11018-0.11018-0.0504-0.0168-0.39171 0.0245-0.44074 0-0.0464-0.0232-0.0637-0.087-0.11018-0.11019-0.0692-0.0346-0.37148 0.0346-0.44073 0-0.2095-0.10475-0.009-0.27766-0.22037-0.33055-0.1069-0.0267-0.22037 0-0.33055 0h-0.44074-1.5426c-0.11534 0-0.5715 0.0224-0.6611 0-0.0797-0.0199-0.1407-0.0903-0.22037-0.11018-0.0713-0.0178-0.14691 0-0.22037 0h-0.6611c-0.0367 0-0.0753 0.0116-0.11018 0-0.0735-0.0367-0.14691-0.0735-0.22037-0.11018-0.0735 0-0.15068 0.0232-0.22037 0-0.0493-0.0164-0.0609-0.0938-0.11018-0.11019-0.0989-0.0697-0.22602 0.0349-0.33055 0-0.0779-0.026-0.14246-0.0842-0.22037-0.11018-0.0992-0.0331-0.23139 0.0331-0.33055 0-0.0779-0.026-0.14246-0.0842-0.22037-0.11019-0.10558-0.0352-0.44884 0.034-0.55092 0-0.0493-0.0164-0.0637-0.087-0.11018-0.11018-0.0328-0.0164-0.0753 0.0116-0.11018 0-0.0779-0.026-0.14246-0.0842-0.22037-0.11018-0.0348-0.0116-0.0773 0.0164-0.11019 0-0.50426-0.25214 0.46756 0.0457-0.33055-0.22037-0.0697-0.0232-0.15466 0.0328-0.22036 0-0.0465-0.0232-0.0609-0.0938-0.11019-0.11018-0.16527-0.0551-0.38564 0.0551-0.55092 0-0.0493-0.0164-0.0609-0.0938-0.11018-0.11019-0.16528-0.0551-0.38564 0.0551-0.55092 0-0.0493-0.0164-0.0637-0.087-0.11018-0.11018-0.073-0.0365-0.34839 0.0308-0.44074 0-0.0779-0.026-0.14245-0.0842-0.22036-0.11018-0.10558-0.0352-0.44885 0.034-0.55092 0-0.0493-0.0164-0.0609-0.0938-0.11019-0.11019-0.0697-0.0232-0.1491 0.0178-0.22036 0-0.19943 0.0664-0.20493-0.17849-0.33056-0.22037-0.0697-0.0232-0.15068 0.0232-0.22036 0-0.0493-0.0164-0.0609-0.0937-0.11019-0.11018-0.0992-0.0331-0.23138 0.0331-0.33055 0-0.0779-0.026-0.14245-0.0842-0.22037-0.11018-0.0638-0.0213-0.34525 0-0.44073 0h-1.1018-2.6444-2.5342-0.99166-0.22036c-0.0367 0-0.0753-0.0116-0.11019 0-0.0779 0.026-0.14245 0.0842-0.22036 0.11018-0.10497 0.035-0.4436-0.0358-0.55092 0-0.0779 0.026-0.14246 0.0842-0.22037 0.11018-0.0348 0.0116-0.0753-0.0116-0.11018 0-0.0779 0.026-0.14246 0.0842-0.22037 0.11019-0.0348 0.0116-0.0753-0.0116-0.11018 0-0.0779 0.026-0.14246 0.0842-0.22037 0.11018-0.0349 0.0116-0.0773-0.0164-0.11019 0-0.0464 0.0232-0.0609 0.0938-0.11018 0.11019-0.10453 0.0348-0.22602-0.0349-0.33055 0-0.15582 0.0519-0.28491 0.16842-0.44074 0.22036-0.0348 0.0116-0.0753-0.0116-0.11018 0-0.0779 0.026-0.14245 0.0842-0.22037 0.11019-0.0348 0.0116-0.0773-0.0164-0.11018 0-0.0465 0.0232-0.0637 0.087-0.11018 0.11018-0.0328 0.0164-0.0753-0.0116-0.11019 0-0.0779 0.026-0.14245 0.0842-0.22037 0.11018-0.0348 0.0116-0.0773-0.0164-0.11018 0-0.0465 0.0232-0.067 0.0814-0.11018 0.11019-0.0683 0.0455-0.15204 0.0646-0.22037 0.11018-0.0432 0.0288-0.0637 0.087-0.11018 0.11018-0.0328 0.0164-0.0753-0.0116-0.11019 0-0.0779 0.026-0.14069 0.0903-0.22036 0.11019-0.1069 0.0267-0.22603-0.0348-0.33056 0-0.0779 0.026-0.14245 0.0842-0.22036 0.11018-0.11709 0.039-0.32366-0.039-0.44074 0-0.0493 0.0164-0.0609 0.0938-0.11018 0.11019-0.16528 0.0551-0.38564-0.0551-0.55092 0-0.0493 0.0164-0.0637 0.087-0.11018 0.11018-0.0693 0.0346-0.37149-0.0346-0.44074 0-0.0465 0.0232-0.0637 0.087-0.11018 0.11018-0.0328 0.0164-0.0773-0.0164-0.11019 0-0.0465 0.0232-0.0609 0.0938-0.11018 0.11019-0.10453 0.0348-0.22602-0.0349-0.33055 0-0.0779 0.026-0.14246 0.0842-0.22037 0.11018-0.0348 0.0116-0.0753-0.0116-0.11018 0-0.0779 0.026-0.14246 0.0842-0.22037 0.11018-0.0887 0.0296-0.37032-0.0352-0.44073 0-0.22534 0.11267 0.003 0.15162-0.22037 0.33056-0.25652 0.20521-0.60814 0.25851-0.88147 0.44073-0.0864 0.0576-0.13129 0.16692-0.22037 0.22037-0.89592 0.53755 0.11802-0.22559-0.55092 0.22037-0.0432 0.0288-0.067 0.0814-0.11018 0.11018-0.55663 0.37108-0.003 0.00085-0.33055 0.11018-0.15583 0.0519-0.28823 0.15937-0.44074 0.22037-0.10783 0.0431-0.22271 0.067-0.33055 0.11018-0.0762 0.0305-0.14245 0.0842-0.22037 0.11019-0.0348 0.0116-0.0773-0.0164-0.11018 0-0.0465 0.0232-0.0609 0.0938-0.11018 0.11018-0.0992 0.0331-0.23139-0.0331-0.33055 0-0.0779 0.026-0.14246 0.0842-0.22037 0.11019-0.0349 0.0116-0.0773-0.0164-0.11019 0-0.0464 0.0232-0.067 0.0814-0.11018 0.11018 0.0126 0.20873-0.25709 0.0735-0.33055 0.11018-0.0465 0.0232-0.0609 0.0938-0.11018 0.11019-0.0697 0.0232-0.15069-0.0232-0.22037 0-0.0493 0.0164-0.067 0.0814-0.11019 0.11018-0.0683 0.0456-0.14245 0.0842-0.22036 0.11018-0.0349 0.0116-0.0773-0.0164-0.11019 0-0.50426 0.25214 0.46756-0.0457-0.33055 0.22037-0.0348 0.0116-0.0773-0.0164-0.11018 0-0.0465 0.0232-0.067 0.0814-0.11019 0.11018-0.0683 0.0456-0.15203 0.0646-0.22036 0.11019-0.0432 0.0288-0.0609 0.0938-0.11019 0.11018-0.0697 0.0232-0.15068-0.0232-0.22036 0-0.0985 0.0328-0.12746 0.17391-0.22037 0.22037-0.0328 0.0164-0.0753-0.0116-0.11018 0-0.0779 0.026-0.14246 0.0842-0.22037 0.11018-0.0349 0.0116-0.0773-0.0164-0.11019 0-0.0464 0.0232-0.0609 0.0938-0.11018 0.11019-0.0992 0.0331-0.23139-0.0331-0.33055 0-0.0779 0.026-0.14069 0.0903-0.22037 0.11018-0.10689 0.0267-0.22602-0.0348-0.33055 0-0.0779 0.026-0.14246 0.0842-0.22037 0.11018-0.0992 0.0331-0.23138-0.0331-0.33055 0-0.0493 0.0164-0.0637 0.087-0.11018 0.11019-0.0328 0.0164-0.0773-0.0164-0.11019 0-0.0465 0.0232-0.0637 0.087-0.11018 0.11018-0.0328 0.0164-0.0773-0.0164-0.11018 0-0.0929 0.0465-0.13393 0.16275-0.22037 0.22037 0.0126 0.20873-0.2571 0.0735-0.33055 0.11018-0.0465 0.0232-0.067 0.0814-0.11018 0.11019-0.0683 0.0455-0.15204 0.0646-0.22037 0.11018-0.0432 0.0288-0.067 0.0814-0.11019 0.11018-0.55662 0.37109-0.003 0.00086-0.33055 0.11019-0.7981 0.26603 0.17372-0.0318-0.33055 0.22037-0.0328 0.0164-0.0753-0.0116-0.11018 0-0.0779 0.026-0.14246 0.0842-0.22037 0.11018-0.0348 0.0116-0.0735 0-0.11018 0-0.0367 0.0367-0.0637 0.0869-0.11019 0.11018-0.0328 0.0164-0.0842-0.026-0.11018 0-0.0519 0.0519 0.0657 0.18752 0 0.22037-0.0657 0.0328-0.14791-0.0121-0.22037 0-0.17911 0.0299-0.58415 0.14551-0.77128 0.22037-0.0763 0.0305-0.14692 0.0735-0.22037 0.11018-0.11019 0.0367-0.22272 0.0671-0.33055 0.11019-0.0762 0.0305-0.14246 0.0842-0.22037 0.11018-0.328 0.10933 0.22608-0.2609-0.33055 0.11018-0.0432 0.0288-0.067 0.0814-0.11018 0.11019-0.13667 0.0911-0.30934 0.12181-0.44074 0.22036-0.0831 0.0623-0.13726 0.15804-0.22037 0.22037-0.19392 0.14544-0.46718 0.18511-0.6611 0.33055-0.0831 0.0623-0.13726 0.15804-0.22037 0.22037-0.1314 0.0986-0.30407 0.12926-0.44073 0.22037-0.0951 0.0634-0.24449 0.24449-0.33055 0.33055l-0.55092 0.55092-0.22037 0.22036c-0.0367 0.0367-0.0637 0.087-0.11018 0.11019-0.0328 0.0164-0.0773-0.0164-0.11019 0-0.0929 0.0465-0.13393 0.16274-0.22036 0.22037-0.0683 0.0456-0.15204 0.0646-0.22037 0.11018-0.16213 0.10809-0.2786 0.33265-0.44074 0.44073-0.0555 0.24276-0.22666 0.0582-0.33055 0.11019-0.0929 0.0465-0.12745 0.17391-0.22036 0.22036-0.0328 0.0164-0.0773-0.0164-0.11019 0-0.0929 0.0465-0.12745 0.17391-0.22037 0.22037-0.27137 0.13569 0.0995-0.31983-0.33055 0.11019-0.0581 0.0581-0.0646 0.15203-0.11018 0.22036-0.0288 0.0432-0.0735 0.0735-0.11018 0.11019-0.0735 0.0735-0.13727 0.15804-0.22037 0.22036-0.0657 0.0493-0.15204 0.0646-0.22037 0.11019-0.25313 0.16875 0.0472 0.0629-0.22037 0.33055-0.0581 0.0581-0.16229 0.0521-0.22036 0.11018-0.026 0.026 0.026 0.0842 0 0.11019-0.026 0.026-0.0773-0.0164-0.11019 0-0.0465 0.0232-0.0734 0.0734-0.11018 0.11018l-0.11018 0.11018-0.44074 0.44074c-0.0735 0.0734-0.13393 0.16274-0.22037 0.22037-0.0683 0.0456-0.15203 0.0646-0.22036 0.11018-0.0432 0.0288-0.0637 0.087-0.11019 0.11018-0.0328 0.0164-0.0773-0.0164-0.11018 0-0.0465 0.0232-0.0735 0.0735-0.11019 0.11019-0.0866 0.0866-0.48073 0.51582-0.55091 0.55092-0.0328 0.0164-0.0773-0.0164-0.11019 0-0.10842 0.0542-0.33231 0.38652-0.44073 0.44073-0.0329 0.0164-0.0842-0.026-0.11019 0-0.22797 0.22798 0.34838-0.009-0.11018 0.22037-0.0328 0.0164-0.0773-0.0164-0.11018 0-0.0929 0.0465-0.12746 0.17391-0.22037 0.22037-0.0328 0.0164-0.0773-0.0164-0.11019 0-0.45855 0.22928 0.1178-0.008-0.11018 0.22036-0.026 0.026-0.0773-0.0164-0.11018 0-0.24362 0.12181-0.0342 0.0684-0.11019 0.22037-0.0661 0.13222-0.26444 0.19833-0.33055 0.33055-0.0164 0.0328 0.0164 0.0773 0 0.11019-0.36543 0.36543 0.0519-0.10389-0.11018 0.22036-0.23415 0.4683 0.0138-0.24792-0.22037 0.22037-0.0164 0.0328 0.0164 0.0773 0 0.11018-0.0232 0.0465-0.087 0.0637-0.11018 0.11019-0.0328 0.0657 0.0328 0.15466 0 0.22037-0.0232 0.0465-0.087 0.0637-0.11019 0.11018-0.0335 0.0669 0.0335 0.5942 0 0.6611-0.0465 0.0929-0.18751 0.12182-0.22036 0.22037-0.0218 0.0655 0 0.53095 0 0.6611 0 0.0262-0.0123 0.41604 0 0.44074 0.23414 0.46829-0.0138-0.24793 0.22036 0.22036 0.0164 0.0329-0.026 0.0842 0 0.11019 0.026 0.026 0.0842-0.026 0.11019 0 0.026 0.026-0.026 0.0842 0 0.11018 0.026 0.026 0.0842-0.026 0.11018 0 0.026 0.026-0.026 0.0842 0 0.11018 0.026 0.026 0.0773-0.0164 0.11019 0 0.0464 0.0232 0.0637 0.087 0.11018 0.11019 0.0328 0.0164 0.0842-0.026 0.11018 0 0.026 0.026-0.026 0.0842 0 0.11018 0.026 0.026 0.0773-0.0164 0.11019 0 0.0465 0.0232 0.0637 0.087 0.11018 0.11019 0.0328 0.0164 0.0842-0.026 0.11018 0 0.026 0.026-0.026 0.0842 0 0.11018 0.026 0.026 0.0842-0.026 0.11019 0 0.026 0.026-0.0164 0.0773 0 0.11018 0.0105 0.0211 0.41964 0.43019 0.44073 0.44074 0.0328 0.0164 0.0773-0.0164 0.11019 0 0.051 0.0255 0.37593 0.37593 0.44073 0.44073 0.0367 0.0367 0.0637 0.087 0.11018 0.11019 0.0328 0.0164 0.0773-0.0164 0.11019 0 0.0977 0.0488 0.23025 0.26368 0.33055 0.33055-0.0125 0.20873 0.25709 0.0734 0.33055 0.11018 0.0589 0.0294 0.27254 0.27254 0.33055 0.33055 0.25263 0.25264-0.0697-0.0465 0.33055 0.22037 0.0432 0.0288 0.0735 0.0735 0.11019 0.11018l0.33055 0.33055c0.0367 0.0367 0.067 0.0814 0.11018 0.11019 0.0683 0.0455 0.15204 0.0646 0.22037 0.11018 0.0432 0.0288 0.0609 0.0938 0.11018 0.11019 0.0697 0.0232 0.15068-0.0232 0.22037 0 0.0493 0.0164 0.067 0.0814 0.11018 0.11018 0.0683 0.0456 0.15204 0.0646 0.22037 0.11018 0.0432 0.0288 0.0735 0.0735 0.11018 0.11019l0.33056 0.33055c0.0734 0.0734 0.13393 0.16274 0.22036 0.22037 0.88147 0.58764-0.404-0.40401 0.33055 0.33055 0.0581 0.0581 0.15204 0.0646 0.22037 0.11018 0.0432 0.0288 0.0735 0.0735 0.11019 0.11018 0.0367 0.0367 0.0814 0.067 0.11018 0.11019 0.0455 0.0683 0.0521 0.16229 0.11018 0.22037 0.026 0.026 0.0773-0.0164 0.11019 0 0.10842 0.0542 0.33231 0.38652 0.44073 0.44073 0.0328 0.0164 0.0773-0.0164 0.11019 0 0.45855 0.22928-0.1178-0.008 0.11018 0.22037 0.43002 0.43002 0.0592-0.0255 0.33055 0.11018 0.13222 0.0661 0.19833 0.26444 0.33055 0.33055 0.0329 0.0164 0.0773-0.0164 0.11018 0 0.0929 0.0465 0.12746 0.17391 0.22037 0.22037 0.0328 0.0164 0.0773-0.0164 0.11019 0 0.0464 0.0232 0.0637 0.087 0.11018 0.11018 0.0328 0.0164 0.0842-0.026 0.11018 0 0.22798 0.22798-0.34837-0.009 0.11019 0.22037 0.0328 0.0164 0.0773-0.0164 0.11018 0 0.0465 0.0232 0.0637 0.087 0.11018 0.11018 0.0329 0.0164 0.0773-0.0164 0.11019 0 0.50427 0.25214-0.46756-0.0457 0.33055 0.22037 0.0348 0.0116 0.0735 0 0.11018 0 0.0367 0.0367 0.0637 0.087 0.11019 0.11019 0.0329 0.0164 0.0773-0.0164 0.11018 0 0.0465 0.0232 0.0637 0.087 0.11018 0.11018 0.0329 0.0164 0.0773-0.0164 0.11019 0 0.0465 0.0232 0.0637 0.087 0.11018 0.11018 0.0328 0.0164 0.0773-0.0164 0.11019 0 0.0464 0.0232 0.0734 0.0735 0.11018 0.11019 0.0367 0.0367 0.0735 0.0734 0.11018 0.11018l0.44074 0.44074c0.0367 0.0367 0.0734 0.0735 0.11018 0.11018 0.0367 0.0367 0.0637 0.087 0.11019 0.11018 0.0329 0.0164 0.0773-0.0164 0.11018 0 0.45856 0.22928-0.11779-0.008 0.11018 0.22037 0.026 0.026 0.0842-0.026 0.11019 0 0.026 0.026-0.026 0.0842 0 0.11018 0.0226 0.0226 0.43314-0.0114 0.44073 0 0.0644 0.0966 0.0405 0.23764 0.11018 0.33056 0.0493 0.0657 0.1623 0.0521 0.22037 0.11018 0.57269 0.57269-0.10445 0.11477 0.44074 0.55092 0.1034 0.0827 0.22714 0.13764 0.33055 0.22036 0.16224 0.12979 0.29382 0.29383 0.44073 0.44074l0.66111 0.6611 0.22036 0.22037c0.0735 0.0735 0.13726 0.15804 0.22037 0.22037 0.0657 0.0493 0.15203 0.0646 0.22037 0.11018 0.0864 0.0576 0.13393 0.16274 0.22037 0.22037 0.34899 0.23266 0.2768 0.0188 0.55091 0.11018 0.0493 0.0164 0.0609 0.0938 0.11019 0.11019 0.0697 0.0232 0.15068-0.0232 0.22036 0 0.0493 0.0164 0.0637 0.087 0.11019 0.11018 0.0328 0.0164 0.0753-0.0116 0.11018 0 0.15583 0.0519 0.28139 0.18053 0.44074 0.22037 0.0713 0.0178 0.15068-0.0232 0.22036 0 0.0493 0.0164 0.067 0.0814 0.11019 0.11018 0.0683 0.0456 0.14691 0.0735 0.22037 0.11018 0.0734 0.0367 0.14245 0.0842 0.22036 0.11019 0.0349 0.0116 0.0735 0 0.11019 0 0.0735 0.0367 0.14245 0.0842 0.22036 0.11018 0.0349 0.0116 0.0773-0.0164 0.11019 0 0.0465 0.0232 0.0609 0.0938 0.11018 0.11018 0.0697 0.0232 0.15068-0.0232 0.22037 0 0.0493 0.0164 0.0637 0.087 0.11018 0.11019 0.0328 0.0164 0.0773-0.0164 0.11019 0 0.0464 0.0232 0.0637 0.0869 0.11018 0.11018 0.0329 0.0164 0.0773-0.0164 0.11018 0 0.0465 0.0232 0.0637 0.087 0.11019 0.11019 0.0328 0.0164 0.0773-0.0164 0.11018 0 0.36543 0.36543-0.10388-0.0519 0.22037 0.11018 0.0465 0.0232 0.0637 0.087 0.11018 0.11018 0.0328 0.0164 0.0842-0.026 0.11019 0 0.026 0.026-0.0164 0.0773 0 0.11019 0.12181 0.24362 0.0684 0.0342 0.22036 0.11018 0.0929 0.0465 0.12746 0.17391 0.22037 0.22037 0.0328 0.0164 0.0735 0 0.11018 0 0.0367 0.0367 0.0637 0.087 0.11019 0.11018 0.0328 0.0164 0.0753-0.0116 0.11018 0 0.0779 0.026 0.14246 0.0842 0.22037 0.11019 0.0758 0.0253 0.26554-0.0325 0.33055 0 0.0465 0.0232 0.0637 0.087 0.11018 0.11018 0.0328 0.0164 0.0773-0.0164 0.11019 0 0.0465 0.0232 0.0609 0.0938 0.11018 0.11018 0.0697 0.0232 0.14691 0 0.22037 0 0.0367 0 0.0773-0.0164 0.11018 0 0.0465 0.0232 0.0609 0.0938 0.11019 0.11019 0.0697 0.0232 0.1491-0.0178 0.22036 0 0.0797 0.0199 0.14246 0.0842 0.22037 0.11018 0.0348 0.0116 0.0753-0.0116 0.11019 0 0.0779 0.026 0.14069 0.0903 0.22036 0.11018 0.0713 0.0178 0.15068-0.0232 0.22037 0 0.0493 0.0164 0.0609 0.0938 0.11018 0.11019 0.0697 0.0232 0.14911-0.0178 0.22037 0 0.15935 0.0398 0.28823 0.15936 0.44074 0.22037 0.10398 0.27323 0.29707 0.0623 0.44073 0.11018 0.0779 0.026 0.14069 0.0903 0.22037 0.11018 0.10689 0.0267 0.22602-0.0348 0.33055 0 0.0779 0.026 0.14246 0.0842 0.22037 0.11019 0.10558 0.0352 0.44884-0.034 0.55092 0 0.0493 0.0164 0.0637 0.087 0.11018 0.11018 0.0328 0.0164 0.0735 0 0.11018 0 0.0735 0 0.15068-0.0232 0.22037 0 0.0493 0.0164 0.0637 0.087 0.11018 0.11018 0.0328 0.0164 0.0773-0.0164 0.11019 0 0.0465 0.0232 0.0637 0.087 0.11018 0.11019 0.0328 0.0164 0.0773-0.0164 0.11019 0 0.0465 0.0232 0.0637 0.087 0.11018 0.11018 0.0328 0.0164 0.0773-0.0164 0.11018 0 0.0465 0.0232 0.0637 0.087 0.11019 0.11019 0.0328 0.0164 0.0734 0 0.11018 0 0.0735 0.0367 0.15203 0.0646 0.22037 0.11018 0.0864 0.0576 0.12181 0.18752 0.22036 0.22037 0.0697 0.0232 0.14692 0 0.22037 0 0.0367 0 0.0773-0.0164 0.11019 0 0.0465 0.0232 0.0637 0.087 0.11018 0.11018 0.0328 0.0164 0.0735 0 0.11018 0 0.0735 0 0.15068-0.0232 0.22037 0 0.0493 0.0164 0.0637 0.087 0.11018 0.11018 0.0881 0.0441 0.24241-0.0441 0.33056 0 0.0464 0.0232 0.0637 0.087 0.11018 0.11019 0.0437 0.0218 0.30802-0.0225 0.33055 0 0.026 0.026-0.026 0.0842 0 0.11018 0.026 0.026 0.0773-0.0164 0.11018 0 0.0929 0.0465 0.11959 0.19517 0.22037 0.22037 0.1069 0.0267 0.22122-0.0137 0.33055 0 0.18583 0.0232 0.36457 0.0915 0.55092 0.11018 0.18273 0.0183 0.37024-0.0328 0.55092 0 1.4297 0.47658-0.0411 0.0637 1.212 0.22037 0.23049 0.0288 0.43198 0.18218 0.6611 0.22037 0.10869 0.0181 0.22251-0.0216 0.33055 0 0.0805 0.0161 0.1407 0.0903 0.22037 0.11018 0.0972 0.0243 0.34635-0.0315 0.44074 0 0.0779 0.026 0.14245 0.0842 0.22036 0.11018 0.0697 0.0232 0.15467-0.0328 0.22037 0 0.0465 0.0232 0.0609 0.0938 0.11018 0.11019 0.13938 0.0465 0.29821-0.0356 0.44074 0 0.0797 0.0199 0.14069 0.0903 0.22037 0.11018 0.0713 0.0178 0.14834-0.0144 0.22036 0 0.11389 0.0228 0.21667 0.0874 0.33056 0.11019 0.072 0.0144 0.14691 0 0.22036 0 0.11019 0.0367 0.21788 0.082 0.33055 0.11018 0.22037 0.0551 0-0.11018 0.33056 0 0.0493 0.0164 0.0609 0.0938 0.11018 0.11018 0.10453 0.0348 0.22037 0 0.33055 0h0.77129 2.3138 3.1953 1.212c0.0955 0 0.37691 0.0213 0.44074 0 0.0779-0.026 0.14245-0.0842 0.22036-0.11018 0.0638-0.0213 0.34526 0 0.44074 0h0.88147 0.44073c0.0735 0 0.16161 0.0441 0.22037 0 0.0239-0.0179 0.40582-0.62618 0.44074-0.6611 0.0936-0.0936 0.22036-0.14691 0.33055-0.22037 0.11018-0.0735 0.217-0.15224 0.33055-0.22037 0.27347-0.16408 0.58882-0.21349 0.88147-0.33055 0.0763-0.0305 0.14411-0.0797 0.22037-0.11018 0.10783-0.0431 0.22271-0.067 0.33055-0.11019 0.0762-0.0305 0.14069-0.0903 0.22036-0.11018 0.0713-0.0178 0.14911 0.0178 0.22037 0 0.0797-0.0199 0.14246-0.0842 0.22037-0.11018 0.0348-0.0116 0.0735 0 0.11018 0 0.0735-0.0367 0.14412-0.0797 0.22037-0.11019 1.1091-0.44365-0.23394 0.086 0.55092-0.11018 0.0797-0.0199 0.14245-0.0842 0.22037-0.11018 0.0714-0.0238 0.7613 0 0.88147 0h1.7629c0.11096 0 0.60016 0.0203 0.6611 0 0.0493-0.0164 0.0735-0.0735 0.11018-0.11019 0.0367-0.0367 0.0814-0.067 0.11019-0.11018 0.0455-0.0683 0.0646-0.15204 0.11018-0.22037 0.0288-0.0432 0.0734-0.0735 0.11018-0.11018 0.0367-0.0735 0.0646-0.15204 0.11019-0.22037 0.0393-0.0589 0.42986-0.43258 0.44073-0.44074 0.0657-0.0493 0.15467-0.0609 0.22037-0.11018 0.79255-0.59441-0.23253 0.12235 0.33055-0.44073 0.11614-0.11615 0.32459-0.10423 0.44073-0.22037 0.26762-0.26762-0.0328-0.1618 0.22037-0.33055 0.0683-0.0456 0.15204-0.0646 0.22037-0.11019 0.0432-0.0288 0.067-0.0814 0.11018-0.11018 0.0683-0.0456 0.15204-0.0646 0.22037-0.11018 0.0864-0.0576 0.12182-0.18752 0.22037-0.22037 0.0697-0.0232 0.1491 0.0178 0.22037 0 0.2389-0.0597 0.31201-0.27083 0.55091-0.33055 0.0713-0.0178 0.15069 0.0232 0.22037 0 0.0493-0.0164 0.0637-0.087 0.11019-0.11019 0.10388-0.0519 0.22271-0.067 0.33055-0.11018 0.0762-0.0305 0.13983-0.0941 0.22036-0.11018 0.10805-0.0216 0.22251 0.0216 0.33055 0 0.16107-0.0322 0.28492-0.16843 0.44074-0.22037 0.0348-0.0116 0.0753 0.0116 0.11018 0 0.0779-0.026 0.14246-0.0842 0.22037-0.11018 0.0992-0.0331 0.23139 0.0331 0.33055 0 0.0779-0.026 0.14246-0.0842 0.22037-0.11019 0.0608-0.0203 0.41718 0.0236 0.44073 0 0.026-0.026-0.026-0.0842 0-0.11018 0.026-0.026 0.0808 0.022 0.11019 0 1.0921-0.81905-0.36669 0.0915 0.6611-0.55092 1.4681-0.91759-0.23608 0.15064 0.99165-0.55092 0.11498-0.0657 0.21558-0.15467 0.33055-0.22037 0.14262-0.0815 0.30407-0.12925 0.44074-0.22036 0.0864-0.0576 0.13129-0.16692 0.22037-0.22037 0.0996-0.0598 0.23096-0.0504 0.33055-0.11019 0.0891-0.0534 0.13726-0.15803 0.22037-0.22036 0.32176-0.24132 0.15157 0.055 0.44073-0.33055 0.13381-0.17841 0.0519-0.21822 0.22037-0.33055 0.0683-0.0456 0.15203-0.0646 0.22037-0.11019 0.0432-0.0288 0.0734-0.0734 0.11018-0.11018 0.0735-0.0367 0.15203-0.0646 0.22037-0.11019 0.0432-0.0288 0.0735-0.0734 0.11018-0.11018 0.0367-0.0735 0.0445-0.17109 0.11018-0.22037 0.0929-0.0697 0.22272-0.067 0.33055-0.11018 0.0763-0.0305 0.15204-0.0646 0.22037-0.11018 0.0432-0.0288 0.0735-0.0735 0.11019-0.11019l0.22036-0.22037c0.0367-0.0367 0.0637-0.087 0.11019-0.11018 0.0328-0.0164 0.0773 0.0164 0.11018 0 0.0465-0.0232 0.067-0.0814 0.11018-0.11018 0.7989-0.39945-0.17421 0.11614 0.33056-0.22037 0.0683-0.0456 0.15203-0.0646 0.22036-0.11018 0.0864-0.0576 0.13394-0.16275 0.22037-0.22037 0.0683-0.0456 0.15203-0.0646 0.22037-0.11019 0.0432-0.0288 0.0637-0.087 0.11018-0.11018 0.0328-0.0164 0.0773 0.0164 0.11019 0 0.0464-0.0232 0.0637-0.087 0.11018-0.11018 0.0328-0.0164 0.0734 0 0.11018 0 0.0735-0.0367 0.15204-0.0646 0.22037-0.11019 0.0432-0.0288 0.0637-0.087 0.11018-0.11018 0.0328-0.0164 0.0773 0.0164 0.11019 0 0.0929-0.0465 0.13393-0.16274 0.22037-0.22037 0.13666-0.0911 0.30933-0.12181 0.44073-0.22037 0.12466-0.0935 0.2009-0.24411 0.33055-0.33055 0.0683-0.0456 0.15204-0.0646 0.22037-0.11018 0.0432-0.0288 0.0609-0.0938 0.11018-0.11018 0.0697-0.0232 0.15068 0.0232 0.22037 0 0.0493-0.0164 0.0735-0.0735 0.11018-0.11019l0.33055-0.33055c0.0367-0.0367 0.067-0.0814 0.11019-0.11018 0.55662-0.37109 0.003-0.00085 0.33055-0.11019 0.79811-0.26603-0.17372 0.0318 0.33055-0.22036 0.0328-0.0164 0.0773 0.0164 0.11018 0 0.0465-0.0232 0.0637-0.087 0.11019-0.11019 0.0328-0.0164 0.0773 0.0164 0.11018 0 0.0465-0.0232 0.0637-0.087 0.11019-0.11018 0.0328-0.0164 0.0842 0.026 0.11018 0 0.0581-0.0581 0.0679-0.14995 0.11018-0.22037 0.0681-0.11355 0.13765-0.22714 0.22037-0.33055 0.0649-0.0811 0.16692-0.13129 0.22037-0.22037 0.0598-0.0996 0.0405-0.23763 0.11018-0.33055 0.0493-0.0657 0.15467-0.0609 0.22037-0.11018 0.0831-0.0623 0.14691-0.14691 0.22037-0.22037 0.0367-0.0367 0.0637-0.087 0.11018-0.11018 0.10388-0.0519 0.23096-0.0504 0.33055-0.11019 0.0891-0.0534 0.14691-0.14691 0.22037-0.22036 0.0367-0.0367 0.0609-0.0938 0.11018-0.11019 0.0697-0.0232 0.15068 0.0232 0.22037 0 0.0673-0.0224 0.34787-0.37882 0.44073-0.44073 0.0683-0.0456 0.15204-0.0646 0.22037-0.11019 0.0467-0.0311 0.30776-0.28496 0.33055-0.33055 0.0164-0.0328-0.026-0.0842 0-0.11018 0.22798-0.22798-0.009 0.34837 0.22037-0.11018 0.0164-0.0329-0.0164-0.0773 0-0.11019 0.0661-0.13222 0.26444-0.19833 0.33055-0.33055 0.0164-0.0328-0.0164-0.0773 0-0.11018 0.0232-0.0465 0.087-0.0637 0.11019-0.11019 0.0164-0.0328-0.026-0.0842 0-0.11018 0.026-0.026 0.0842 0.026 0.11018 0 0.026-0.026-0.0164-0.0773 0-0.11018 0.0232-0.0465 0.0869-0.0637 0.11018-0.11019 0.0164-0.0328-0.026-0.0842 0-0.11018 0.026-0.026 0.0842 0.026 0.11019 0 0.026-0.026-0.026-0.0842 0-0.11019 0.026-0.026 0.0842 0.026 0.11018 0 0.026-0.026-0.026-0.0842 0-0.11018 0.0733-0.0733 0.14703 0.0733 0.22037 0 0.026-0.026-0.026-0.0842 0-0.11018 0.026-0.026 0.0842 0.026 0.11018 0 0.026-0.026-0.026-0.0842 0-0.11019 0.026-0.026 0.0842 0.026 0.11018 0 0.026-0.026-0.026-0.0842 0-0.11018 0.026-0.026 0.0842 0.026 0.11019 0 0.026-0.026-0.026-0.0842 0-0.11018 0.14691-0.14692 0.11018 0.18364 0.33055-0.22037 0.11345-0.48441 0.0778-0.78853-0.11018-1.1018z" stroke="#e50000" stroke-width="1px" fill="none"/>
</clipPath>
</defs>
<g transform="translate(5.0655 -4.9926)">
<text style="word-spacing:0px;letter-spacing:0px" xml:space="preserve" font-size="27.5px" line-height="125%" y="80.629486" x="4.5946999" font-family="Times" fill="#000000"><tspan y="80.629486" x="4.5946999">All S are P</tspan></text>
<text style="word-spacing:0px;letter-spacing:0px" xml:space="preserve" font-size="27.5px" line-height="125%" y="80.629486" x="352.35141" font-family="Times" fill="#000000"><tspan y="80.629486" x="352.35141">No S are P</tspan></text>
<text style="word-spacing:0px;letter-spacing:0px" xml:space="preserve" font-size="27.5px" line-height="125%" y="311.17117" x="4.5946999" font-family="Times" fill="#000000"><tspan y="311.17117" x="4.5946999">Some S are P</tspan></text>
<text style="word-spacing:0px;letter-spacing:0px" xml:space="preserve" font-size="27.5px" line-height="125%" y="311.17117" x="281.34555" font-family="Times" fill="#000000"><tspan y="311.17117" x="281.34555">Some S are not P</tspan></text>
<text style="word-spacing:0px;letter-spacing:0px" xml:space="preserve" font-size="27.5px" line-height="125%" y="25.77511" x="112.28408" font-family="Times" fill="#000000"><desc>A categorical statement specifies the membership 
relationship between two classes of objects.</desc><title>Categorical Statements</title><tspan y="25.77511" x="112.28408">Categorical Statements</tspan></text>
<g transform="translate(2.0294)">
<desc>Two intersecting circles, S and P.</desc>
<title>Two Intersecting Circles</title>
<path stroke-linejoin="round" d="m207.76 135.3a48.199 48.199 0 0 0 -48.2 48.199 48.199 48.199 0 0 0 48.2 48.2 48.199 48.199 0 0 0 29.1 -9.829 48.199 48.199 0 0 1 -19.13 -38.371 48.199 48.199 0 0 1 19.099 -38.371 48.199 48.199 0 0 0 -29.069 -9.8276z" stroke="#000" stroke-width="5" fill="#fff"/>
<path stroke-linejoin="round" d="m236.83 145.13a48.199 48.199 0 0 1 19.13 38.371 48.199 48.199 0 0 1 -19.099 38.371 48.199 48.199 0 0 0 29.069 9.829 48.199 48.199 0 0 0 48.2 -48.2 48.199 48.199 0 0 0 -48.2 -48.199 48.199 48.199 0 0 0 -29.1 9.8276z" stroke="#000" stroke-width="5" fill="#fff"/>
<path fill="#fff" d="m202.1 229.36c-17.629-2.285-32.532-14.557-38.145-31.411-1.6491-4.9518-2.258-8.8342-2.2622-14.424-0.004-5.6178 0.60196-9.4768 2.274-14.476 2.2737-6.7982 5.5073-12.158 10.477-17.366 3.9451-4.1342 7.7052-6.8998 12.85-9.4514 6.9098-3.4268 12.644-4.7668 20.398-4.7668 8.7163 0 15.62 1.8597 23.412 6.3064l2.3558 1.3444-2.8538 2.837c-5.6092 5.5762-9.947 12.61-12.338 20.006-4.4201 13.673-2.8213 28.63 4.356 40.752 2.4808 4.19 4.2775 6.5007 7.938 10.209l2.9484 2.987-2.4637 1.4096c-5.298 3.0313-11.305 5.1138-17.06 5.9142-2.401 0.33395-9.697 0.41335-11.888 0.12938z"/>
<text style="letter-spacing:0px;word-spacing:0px;white-space:pre" xml:space="preserve" font-size="20.436px" line-height="125%" y="222.2235" x="146.64041" font-family="Times" fill="#000000"><tspan y="222.2235" x="146.64041" style="white-space:pre">S</tspan></text>
<text style="letter-spacing:0px;word-spacing:0px;white-space:pre" xml:space="preserve" font-size="20.436px" line-height="125%" y="222.5096" x="315.74606" font-family="Times" fill="#000000"><tspan y="222.5096" x="315.74606" style="white-space:pre">P</tspan></text>
</g>
</g>
<g id="layer2" transform="translate(6.5 -8.0633e-7)" tabindex="0">
<rect stroke-linejoin="round" fill-opacity="0" height="38.193" width="133.36" stroke="#00f" y="48.099" x="-2.4688" stroke-width="5">
<desc>All members of the S class are members of the P class.</desc>
<title>A Statement</title>
</rect>
<text style="word-spacing:0px;letter-spacing:0px" xml:space="preserve" font-size="15px" line-height="125%" y="104.85036" x="1.4095826" font-family="Times" fill="#000000"><tspan y="104.85036" x="1.4095826">The shading means </tspan><tspan y="123.60036" x="1.4095826">that nothing exists in </tspan><tspan y="142.35036" x="1.4095826">the shaded region. So </tspan><tspan y="161.10036" x="1.4095826">if any S exist, then </tspan><tspan y="179.85037" x="1.4095826">they exist only in the </tspan><tspan y="198.60037" x="1.4095826">intersecting region </tspan><tspan y="217.35037" x="1.4095826">shared with P.</tspan></text>
<g>
<desc>Vertical lines shade the region of the S circle outside of the 
P circle, indicating nothing exists in that part of S.</desc>
<title>Vertical Lines</title>
<path d="m165.31 105.7v150.27" clip-path="url(#c)" transform="translate(2.9289)" stroke="#000" stroke-width="5" fill="none"/>
<path d="m174.84 109.32v150.27" clip-path="url(#e)" transform="translate(2.9289)" stroke="#000" stroke-width="5" fill="none"/>
<path d="m184.37 100.16v150.27" clip-path="url(#g)" transform="translate(2.9289)" stroke="#000" stroke-width="5" fill="none"/>
<path d="m193.9 97.529v150.27" clip-path="url(#i)" transform="translate(2.9289)" stroke="#000" stroke-width="5" fill="none"/>
<path d="m203.43 108.68v150.27" clip-path="url(#k)" transform="translate(2.9289)" stroke="#000" stroke-width="5" fill="none"/>
<path stroke-linejoin="round" d="m222.53 121.93v31.5m0 49.346v36.956 0" clip-path="url(#l)" transform="matrix(.97857 0 0 .97857 7.6972 4.5489)" stroke="#000" stroke-linecap="round" stroke-width="5.1095" fill="none"/>
<path stroke-linejoin="round" d="m212.96 112.19v123.61 0" clip-path="url(#n)" transform="translate(2.9289)" stroke="#000" stroke-linecap="round" stroke-width="5" fill="none"/>
</g>
</g>
<g id="layer3" transform="translate(6.5 -8.0633e-7)" tabindex="0">
<rect stroke-linejoin="round" fill-opacity="0" height="39.004" width="134.05" stroke="#00f" stroke-linecap="round" y="46.898" x="343.43" stroke-width="5">
<desc>No members of the S class belong to the P class.</desc>
<title>E Statement</title>
</rect>
<text style="word-spacing:0px;letter-spacing:0px" xml:space="preserve" font-size="15px" line-height="125%" y="104.08936" x="473.88586" font-family="Times" fill="#000000"><tspan style="text-anchor:end;text-align:end" line-height="125%" y="104.08936" x="477.63586">The shading means </tspan><tspan style="text-anchor:end;text-align:end" line-height="125%" y="122.83936" x="477.63586">that nothing exists in </tspan><tspan style="text-anchor:end;text-align:end" line-height="125%" y="141.58937" x="477.63586">the shaded region. So </tspan><tspan style="text-anchor:end;text-align:end" line-height="125%" y="160.33937" x="477.63586">if any S exist, then </tspan><tspan style="text-anchor:end;text-align:end" line-height="125%" y="179.08937" x="477.63586">they only exist in </tspan><tspan style="text-anchor:end;text-align:end" line-height="125%" y="197.83937" x="477.63586">the part of S that is </tspan><tspan style="text-anchor:end;text-align:end" line-height="125%" y="216.58937" x="473.88586">outside of P.</tspan></text>
<g transform="matrix(0 -1 1 0 151.79 418.42)" clip-path="url(#a)">
<desc>Horizontal lines shading the region of intersection indicate 
that nothing exists that is both an S and a P.</desc>
<title>Horizontal Lines</title>
<path d="m165.31 105.7v150.27" clip-path="url(#b)" transform="translate(50.924 -92.346)" display="inline" stroke="#000" stroke-width="5" fill="none"/>
<path d="m174.84 109.32v150.27" clip-path="url(#d)" transform="translate(50.924 -92.346)" display="inline" stroke="#000" stroke-width="5" fill="none"/>
<path d="m184.37 100.16v150.27" clip-path="url(#f)" transform="translate(50.924 -92.346)" display="inline" stroke="#000" stroke-width="5" fill="none"/>
<path d="m193.9 97.529v150.27" clip-path="url(#h)" transform="translate(50.924 -92.346)" display="inline" stroke="#000" stroke-width="5" fill="none"/>
<path d="m203.43 108.68v150.27" clip-path="url(#j)" transform="translate(50.924 -92.346)" display="inline" stroke="#000" stroke-width="5" fill="none"/>
<path stroke-linejoin="round" d="m212.96 112.19v123.61 0" clip-path="url(#m)" transform="translate(50.924 -92.346)" display="inline" stroke="#000" stroke-linecap="round" stroke-width="5" fill="none"/>
</g>
</g>
<g id="layer4" transform="translate(6.5 -8.0633e-7)" tabindex="0">
<rect stroke-linejoin="round" fill-opacity="0" height="31.809" width="160.18" stroke="#00f" stroke-linecap="round" y="281.95" x="-2" stroke-width="5">
<desc>Some (at least one) member of the S class is a member of 
the P class.</desc>
<title>I Statement</title>
</rect>
<path d="m230.43 167.03c0.89671-0.91288 1.7934-1.058 2.6901 0l4.0662 6.9795 4.1406-6.9795c0.89671-1.0488 1.7934-0.83709 2.6901 0l-5.5414 8.7026 5.9381 9.806c-1.0923 1.4211-2.4236 0.65359-2.6901 0l-4.5373-7.9712-4.8968 7.9712c-0.81799 0.91139-1.7201 0.89731-2.7025 0l6.1984-9.806z">
<desc>An &apos;X&apos; in the region of intersection, indicating that 
there exists at least one S that is also a P.</desc>
<title>X for exists</title>
</path>
<text style="word-spacing:0px;letter-spacing:0px" xml:space="preserve" font-size="15px" line-height="125%" y="161.56358" x="2.9926178" font-family="Times" fill="#000000"><tspan y="161.56358" x="2.9926178">The &apos;X&apos; means that </tspan><tspan y="180.31358" x="2.9926178">something exists in </tspan><tspan y="199.06358" x="2.9926178">the region containing </tspan><tspan y="217.81358" x="2.9926178">the &apos;X&apos;. So, since the </tspan><tspan y="236.56358" x="2.9926178">&apos;X&apos; is in the intersection, </tspan><tspan y="255.31358" x="2.9926178">there exists an S that is </tspan><tspan y="274.06357" x="2.9926178">also a P.</tspan></text>
</g>
<g id="layer5" transform="translate(6.5 -8.0633e-7)" tabindex="0">
<rect stroke-linejoin="round" fill-opacity="0" height="32.566" width="204.49" stroke="#00f" stroke-linecap="round" y="282.43" x="273.03" stroke-width="5">
<desc>At least one member of the S class is not a member of the 
P class.</desc>
<title>O Statement</title>
</rect>
<path d="m182.97 167.26c0.89671-0.91288 1.7934-1.058 2.6901 0l4.0662 6.9795 4.1406-6.9795c0.89671-1.0488 1.7934-0.83709 2.6901 0l-5.5414 8.7026 5.9381 9.806c-1.0923 1.4211-2.4236 0.65359-2.6901 0l-4.5373-7.9712-4.8968 7.9712c-0.81799 0.91139-1.7201 0.89731-2.7025 0l6.1984-9.806z" display="inline">
<desc>An &apos;X&apos; n the region of the S circle that is outside of 
the P circle; thus, an S that is not a P.</desc>
<title>X for exists</title>
</path>
<text style="word-spacing:0px;letter-spacing:0px;text-anchor:end;text-align:end" xml:space="preserve" font-size="15px" line-height="125%" y="161.39084" x="472.97409" font-family="Times" fill="#000000"><tspan y="161.39084" x="476.72409">The &apos;X&apos; means that </tspan><tspan y="180.14084" x="476.72409">something exists in </tspan><tspan y="198.89084" x="476.72409">the region containing </tspan><tspan y="217.64084" x="476.72409">the &apos;X&apos;. So, since the </tspan><tspan y="236.39085" x="476.72409">&apos;X&apos; is in S but outside </tspan><tspan y="255.14085" x="476.72409">of P, there exists an </tspan><tspan y="273.89084" x="472.97409">S that is not a P.</tspan></text>
</g>
<style>text, tspan{white-space:pre;}
#layer2{opacity:0.001;}
#layer2:focus{opacity:1.0;}
#layer3{opacity:0.001;}
#layer3:focus{opacity:1.0;}
#layer4{opacity:0.001;}
#layer4:focus{opacity:1.0;}
#layer5{opacity:0.001;}
#layer5:focus{opacity:1.0;}
g:focus{outline:none;}
</style>
</svg>
